<svg width="40" height="49" viewBox="0 0 40 49" fill="none" xmlns="http://www.w3.org/2000/svg">
<path fill-rule="evenodd" clip-rule="evenodd" d="M26.5824 38.8915C34.3943 36.1699 40 28.7396 40 20C40 8.9543 31.0457 0 20 0C8.9543 0 0 8.9543 0 20C0 29.5993 6.76283 37.6191 15.7839 39.5548L21 49L26.5824 38.8915Z" fill="#930505"/>
<path d="M19.3492 9L29.6667 27L19.3469 24.4091L9 26.9987L10.2883 24.7581L15.9699 23.1141L15.9659 23.0994L19.3479 22.1195L26.1486 24.0608L19.3469 12.5628L16.7627 16.9983L14.3485 17.6969L19.3492 9Z" fill="white"/>
<path d="M11.878 22.1113L13.0931 19.9982L15.4845 19.3062L14.2501 21.4249L11.878 22.1113Z" fill="white"/>
</svg>
