<svg width="67" height="67" viewBox="0 0 67 67" fill="none" xmlns="http://www.w3.org/2000/svg">
<g clip-path="url(#clip0_1013_2764)">
<path d="M66.6176 32.0524L55.6694 21.077C55.4235 20.8307 55.0903 20.6926 54.7427 20.6926H46.0732V12.5625C46.0732 11.8397 45.4874 11.2539 44.7646 11.2539H18.8438C18.121 11.2539 17.5352 11.8397 17.5352 12.5625C17.5352 13.2853 18.121 13.8711 18.8438 13.8711H43.456V45.8008H29.3922C28.2416 43.9187 26.1678 42.6602 23.8052 42.6602C21.6674 42.6602 19.7659 43.6912 18.5708 45.2819C17.3762 43.6912 15.4746 42.6602 13.3364 42.6602C10.9743 42.6602 8.90048 43.9187 7.74984 45.8008H2.61719V13.8711H8.375C9.09779 13.8711 9.68359 13.2853 9.68359 12.5625C9.68359 11.8397 9.09779 11.2539 8.375 11.2539H1.30859C0.5858 11.2539 0 11.8397 0 12.5625V47.1094C0 47.8322 0.5858 48.418 1.30859 48.418H6.84251C6.81133 48.6756 6.79344 48.9373 6.79344 49.2031C6.79344 50.6748 7.28263 52.0345 8.10561 53.1289H1.30859C0.5858 53.1289 0 53.7147 0 54.4375C0 55.1603 0.5858 55.7461 1.30859 55.7461H23.8057C27.4135 55.7461 30.3486 52.811 30.3486 49.2031C30.3486 48.9373 30.3307 48.6756 30.2996 48.418H49.2517C49.221 48.6756 49.2031 48.9373 49.2031 49.2031C49.2031 50.6748 49.6918 52.0345 50.5153 53.1289H39.5175C38.7947 53.1289 38.2089 53.7147 38.2089 54.4375C38.2089 55.1603 38.7947 55.7461 39.5175 55.7461H55.7461C59.3539 55.7461 62.2891 52.811 62.2891 49.2031C62.2891 48.9373 62.2712 48.6756 62.2405 48.418H65.6914C66.4142 48.418 67 47.8322 67 47.1094V32.9766C67 32.63 66.8625 32.2977 66.6176 32.0524ZM9.41114 49.2031C9.41114 47.0383 11.1721 45.2773 13.3369 45.2773C15.5017 45.2773 17.2627 47.0383 17.2627 49.2031C17.2627 51.3679 15.5017 53.1289 13.3369 53.1289C11.1721 53.1289 9.41114 51.3679 9.41114 49.2031ZM18.5713 53.1243C18.5723 53.1258 18.5733 53.1274 18.5749 53.1289H18.5677C18.5687 53.1274 18.5698 53.1258 18.5713 53.1243ZM23.8057 53.1289C21.6409 53.1289 19.8799 51.3679 19.8799 49.2031C19.8799 47.0383 21.6409 45.2773 23.8057 45.2773C25.9705 45.2773 27.7315 47.0383 27.7315 49.2031C27.7315 51.3679 25.97 53.1289 23.8057 53.1289ZM64.3828 36.3789H55.5033L61.3771 30.5045L64.3828 33.5179V36.3789ZM51.0352 35.0703V32.3846L57.1513 26.2685L59.5287 28.6516L51.8857 36.2946C51.3899 36.1085 51.0352 35.6306 51.0352 35.0703ZM55.3029 24.4155L51.0352 28.6833V23.3098H54.1998L55.3029 24.4155ZM55.7461 53.1289C53.5813 53.1289 51.8203 51.3679 51.8203 49.2031C51.8203 47.0383 53.5813 45.2773 55.7461 45.2773C57.9109 45.2773 59.6719 47.0383 59.6719 49.2031C59.6719 51.3679 57.9109 53.1289 55.7461 53.1289ZM61.3327 45.8008C60.1825 43.9187 58.1087 42.6602 55.7461 42.6602C53.3835 42.6602 51.3097 43.9187 50.1595 45.8008H46.0732V23.3098H48.418V35.0703C48.418 37.2351 50.1789 38.9961 52.3438 38.9961H64.3828V45.8008H61.3327Z" fill="currentColor"/>
<path d="M34.2827 53.1289C33.9387 53.1289 33.6008 53.269 33.3575 53.5123C33.1141 53.7556 32.9751 54.0935 32.9751 54.4375C32.9751 54.7815 33.1141 55.1194 33.3575 55.3627C33.6023 55.606 33.9387 55.7461 34.2827 55.7461C34.6282 55.7461 34.9646 55.606 35.2089 55.3627C35.4527 55.1194 35.5923 54.7815 35.5923 54.4375C35.5923 54.0935 35.4527 53.7556 35.2089 53.5123C34.9646 53.269 34.6282 53.1289 34.2827 53.1289Z" fill="currentColor"/>
<path d="M13.6094 13.8711C13.9534 13.8711 14.2913 13.731 14.5346 13.4877C14.7779 13.2444 14.918 12.9065 14.918 12.5625C14.918 12.2185 14.7779 11.8806 14.5346 11.6373C14.2913 11.394 13.9534 11.2539 13.6094 11.2539C13.2654 11.2539 12.9275 11.394 12.6842 11.6373C12.4408 11.8806 12.3008 12.2185 12.3008 12.5625C12.3008 12.9065 12.4408 13.2444 12.6842 13.4877C12.9275 13.731 13.2654 13.8711 13.6094 13.8711Z" fill="currentColor"/>
</g>
<defs>
<clipPath id="clip0_1013_2764">
<rect width="67" height="45" fill="currentColor" transform="translate(0 11)"/>
</clipPath>
</defs>
</svg>
