<svg width="40" height="40" viewBox="0 0 40 40" fill="none" xmlns="http://www.w3.org/2000/svg">
<g clip-path="url(#clip0_581:3315)">
<path d="M23.8447 13.446L23.5712 15.8767C23.5552 16.0257 23.6077 16.1739 23.714 16.2796C23.8195 16.3898 23.9714 16.443 24.1226 16.4224L26.5583 16.1452C26.6068 16.1395 26.649 16.1167 26.6954 16.1067L23.8819 13.2931C23.8665 13.3433 23.8541 13.3944 23.8447 13.446Z" fill="#930505"/>
<path d="M24.7446 12.1426L32.5265 4.36069L35.6509 7.48508L27.869 15.267L24.7446 12.1426Z" fill="#930505"/>
<path d="M33.5332 3.34181L34.5916 2.28337L37.7145 5.40623L36.6561 6.46467L33.5332 3.34181Z" fill="#930505"/>
<path d="M39.7762 3.34711C39.9187 3.20958 39.9994 3.02016 39.9997 2.82214C40.0001 2.62104 39.9195 2.42826 39.7762 2.28713L37.714 0.224265C37.5735 0.0809006 37.3812 0.000131226 37.1805 0C36.9838 0.000721741 36.7956 0.0805069 36.6583 0.221443L35.6069 1.27072L38.7297 4.3935L39.7762 3.34711Z" fill="#930505"/>
<path d="M4.28612 29.9995H5.71464C6.10911 29.9995 6.4289 29.6797 6.4289 29.2852V0.714261C6.42897 0.319797 6.10917 0 5.71464 0H4.28612C1.92019 0.00236206 0.00285034 1.9197 0.000488281 4.28563V31.938C1.08362 30.7054 2.64521 29.999 4.28612 29.9995Z" fill="#930505"/>
<path d="M4.49277 39.9995H39.2851C39.6795 39.9995 39.9993 39.6797 39.9993 39.2852V10.7142C39.9993 10.3198 39.6795 9.99998 39.2851 9.99998H35.1423L28.3609 16.7856C27.9158 17.2221 27.3376 17.4974 26.7181 17.5677C24.3074 17.8384 24.2853 17.857 24.0768 17.857H13.5712V25.714H30.7138V22.1426C30.7138 21.7482 31.0336 21.4284 31.4281 21.4284C31.8225 21.4284 32.1423 21.7482 32.1423 22.1426V32.8567C32.1423 33.6457 31.5027 34.2853 30.7138 34.2853H16.4283C16.0338 34.2853 15.714 33.9655 15.714 33.571C15.714 33.1765 16.0338 32.8567 16.4283 32.8567H21.4282V27.1425H13.5712V37.1424C13.5712 37.5368 13.2514 37.8566 12.857 37.8566C12.4625 37.8566 12.1427 37.5368 12.1427 37.1424V17.857H9.99985C9.60539 17.857 9.28559 17.5372 9.28559 17.1427C9.28559 16.7483 9.60539 16.4285 9.99985 16.4285H22.2204C22.1542 16.1995 22.1317 15.9601 22.154 15.7227L22.4247 13.2892C22.4944 12.6567 22.7805 12.0678 23.2347 11.6221L24.8568 9.99998H7.857V29.2854C7.857 30.4688 6.89761 31.4282 5.71415 31.4282H4.28563C1.9197 31.4306 0.00236206 33.3479 0 35.7138V35.871C0.159439 38.2239 2.13478 40.0391 4.49277 39.9995Z" fill="#930505"/>
<path d="M22.8569 27.1424H30.7139V32.8566H22.8569V27.1424Z" fill="#930505"/>
</g>
<defs>
<clipPath id="clip0_581:3315">
<rect width="40" height="40" fill="white"/>
</clipPath>
</defs>
</svg>
