<svg width="40" height="40" viewBox="0 0 40 40" fill="none" xmlns="http://www.w3.org/2000/svg">
<g clip-path="url(#clip0_581:3337)">
<path d="M12.5796 23.8298H10.6267C9.3345 23.8298 8.2832 24.8811 8.2832 26.1733V37.6565C8.2832 38.9488 9.3345 40.0001 10.6267 40.0001H12.5796C13.8719 40.0001 14.9232 38.9488 14.9232 37.6565V26.1733C14.9232 24.8811 13.8719 23.8298 12.5796 23.8298Z" fill="#930505"/>
<path d="M29.4527 23.8298H27.4216C26.1294 23.8298 25.0781 24.8811 25.0781 26.1733V37.6565C25.0781 38.9488 26.1294 40.0001 27.4216 40.0001H29.4527C30.7449 40.0001 31.7962 38.9488 31.7962 37.6565V26.1733C31.7962 24.8811 30.7449 23.8298 29.4527 23.8298Z" fill="#930505"/>
<path d="M38.043 25.4473V18.0491C38.043 13.2291 36.166 8.69755 32.7578 5.28931C25.7057 -1.76263 14.2911 -1.76357 7.23817 5.28931C3.82992 8.69755 1.95293 13.2291 1.95293 18.0491V25.4473C0.796716 26.0236 0 27.2178 0 28.5949V35.1567C0 37.0948 1.57718 38.672 3.51527 38.672H5.9369V25.0796H4.29644V18.0491C4.29644 15.287 5.01426 12.6898 6.27178 10.4326L6.43138 10.5921C8.08121 12.2436 10.7594 12.2485 12.3901 10.5999C16.5627 6.38396 23.3665 6.35896 27.5636 10.5578C29.3294 12.322 31.9761 12.1806 33.5513 10.6054L33.7242 10.4327C34.9817 12.6899 35.6995 15.2871 35.6995 18.0492V25.0797H34.1372V38.6721H36.4807C38.4188 38.6721 39.9959 37.0949 39.9959 35.1568V28.595C39.9959 27.2178 39.1992 26.0236 38.043 25.4473Z" fill="#930505"/>
<path d="M27.2967 14.2765C27.5862 13.6977 27.3515 12.9938 26.7727 12.7045L23.0231 10.8297C22.2458 10.4407 21.3273 11.0069 21.3273 11.8777V16.3439C20.5771 15.9394 19.6942 15.7054 18.7495 15.7054C16.0359 15.7054 13.8281 17.6328 13.8281 20.0018C13.8281 22.3709 16.0359 24.2983 18.7495 24.2983C21.4631 24.2983 23.6709 22.3709 23.6709 20.0018V13.7736L25.7247 14.8006C26.3035 15.0901 27.0074 14.8553 27.2967 14.2765Z" fill="#930505"/>
</g>
<defs>
<clipPath id="clip0_581:3337">
<rect width="40" height="40" fill="white"/>
</clipPath>
</defs>
</svg>
