<svg width="67" height="67" viewBox="0 0 67 67" fill="none" xmlns="http://www.w3.org/2000/svg">
<g clip-path="url(#clip0_1013_2770)">
<path d="M44.4633 21.4845C43.8044 21.4845 43.2695 22.0169 43.2695 22.6754C43.2695 23.3335 43.8044 23.8668 44.4633 23.8668C45.1236 23.8668 45.657 23.3335 45.657 22.6754C45.657 22.0169 45.1236 21.4845 44.4633 21.4845Z" fill="currentColor"/>
<path d="M22.7738 43.1313C22.1135 43.1313 21.5801 43.6652 21.5801 44.3228C21.5801 44.9818 22.1135 45.5142 22.7738 45.5142C23.4327 45.5142 23.9676 44.9818 23.9676 44.3228C23.9676 43.6652 23.4327 43.1313 22.7738 43.1313Z" fill="currentColor"/>
<path d="M62.6938 10.3295C62.2909 10.2359 61.8675 10.3574 61.5765 10.6506L56.6276 15.6289H54.2551L51.6433 12.9282V10.5273L56.5213 5.58618C56.81 5.29391 56.9275 4.87366 56.8319 4.47389C56.7367 4.07458 56.442 3.75253 56.0522 3.62129C54.8268 3.20895 53.5444 2.99999 52.2402 2.99999C48.3521 2.99999 44.8199 4.80944 42.549 7.96434C40.4236 10.9177 39.7684 14.5371 40.7071 18.001L31.914 26.7769L17.2646 12.1226V9.2465C17.2646 8.82811 17.0445 8.43997 16.685 8.22496L8.2444 3.16986C7.77437 2.8883 7.1733 2.96229 6.78627 3.34904L3.41023 6.71802C3.0232 7.10476 2.94906 7.70465 3.2307 8.17377L8.29476 16.5979C8.5102 16.9567 8.89863 17.1759 9.31783 17.1763L12.1987 17.1773L26.8495 31.8316L18.0899 40.574C14.6192 39.6376 10.9909 40.2924 8.03037 42.4151C4.87116 44.6802 3.05957 48.2046 3.05957 52.085C3.05957 53.3863 3.26894 54.6666 3.68209 55.8892C3.81405 56.2806 4.14 56.5761 4.54288 56.6692C4.94624 56.7627 5.36917 56.6412 5.66061 56.348L10.609 51.3702H12.9946L15.7127 54.083V56.4639L10.7251 61.4027C10.4314 61.6935 10.3097 62.1157 10.4034 62.5182C10.4967 62.9203 10.7928 63.2456 11.1849 63.3773C12.4099 63.7897 13.6927 63.9986 14.9965 63.9986C18.8845 63.9986 22.4154 62.1901 24.6853 59.0371C26.8122 56.0823 27.4682 52.4615 26.53 48.9976L33.5652 41.9762L35.1767 43.7233L34.4372 44.461C33.9709 44.9264 33.9709 45.6808 34.4372 46.1461C34.9035 46.6111 35.6589 46.6111 36.1256 46.1461L36.7953 45.4778L51.9156 61.8699C51.9268 61.882 51.9385 61.8937 51.9501 61.9053C54.748 64.6977 59.2809 64.6986 62.0801 61.9048C64.8714 59.1176 64.8714 54.5823 62.0801 51.7951C62.068 51.783 62.0554 51.7714 62.0428 51.7597L45.593 36.6977L46.2552 36.0369C46.7215 35.5719 46.7215 34.8175 46.2552 34.3521C45.7889 33.8868 45.0334 33.8868 44.5667 34.3521L43.8322 35.0856L42.0785 33.4791L49.1476 26.4237C50.1525 26.6918 51.1896 26.8277 52.2402 26.8277C58.8225 26.8277 64.1771 21.4831 64.1771 14.9141C64.1771 13.6124 63.9677 12.3325 63.5546 11.1095C63.4226 10.7181 63.0967 10.4226 62.6938 10.3295V10.3295ZM13.5388 15.1444C13.315 14.9206 13.0114 14.8066 12.6943 14.8066L9.99444 14.8056L5.7576 7.74561L7.8154 5.69183L14.8771 9.92132V12.6159C14.8771 12.9315 15.0025 13.234 15.2259 13.4574L30.226 28.4621L28.5375 30.1469L13.5388 15.1444ZM43.9031 38.3843L60.4089 53.497C62.2526 55.3567 62.2471 58.3678 60.3916 60.2206C58.532 62.0766 55.5216 62.0821 53.6545 60.2369L38.4847 43.7913L43.9031 38.3843ZM42.1424 36.7717L36.8661 42.0367L35.2546 40.2896L40.3886 35.1652L42.1424 36.7717ZM52.2402 24.4449C51.1961 24.4449 50.1693 24.2778 49.1891 23.9483C48.7597 23.8045 48.285 23.9152 47.9642 24.235C41.9796 30.2078 29.0845 43.0773 24.3361 47.8169C24.0153 48.1371 23.9038 48.6109 24.0488 49.04C25.0411 51.9808 24.5664 55.1175 22.746 57.6469C20.9307 60.1689 18.1058 61.6158 14.9965 61.6158C14.6472 61.6158 14.2998 61.5967 13.9557 61.56L17.7472 57.8052C17.9729 57.5818 18.1002 57.2774 18.1002 56.9596V53.5892C18.1002 53.2732 17.9743 52.9702 17.7505 52.7468L14.3329 49.336C14.1091 49.1126 13.8055 48.9869 13.4889 48.9869H10.112C9.79346 48.9869 9.4885 49.114 9.26421 49.3392L5.50254 53.1233C5.46523 52.7799 5.44658 52.4331 5.44658 52.0846C5.44658 48.9809 6.89585 46.162 9.42322 44.3502C11.9571 42.5333 15.1005 42.0591 18.0475 43.0499C18.477 43.1946 18.9517 43.0834 19.2725 42.7632C19.3382 42.698 42.8838 19.198 42.9006 19.1813C43.2214 18.8611 43.3324 18.3878 43.1878 17.9587C42.1951 15.0178 42.6688 11.882 44.4879 9.35447C46.3046 6.83018 49.1299 5.38281 52.2397 5.38281C52.5997 5.38281 52.9573 5.40282 53.3117 5.44191L49.599 9.20275C49.3789 9.42568 49.2558 9.72586 49.2558 10.0386V13.409C49.2558 13.718 49.3757 14.0145 49.5906 14.2364L52.8888 17.6473C53.1136 17.88 53.4237 18.0113 53.7477 18.0113H57.1247C57.4427 18.0113 57.7477 17.8847 57.972 17.659L61.7337 13.8753C61.771 14.2188 61.7896 14.5655 61.7896 14.9141C61.7896 20.1693 57.5057 24.4449 52.2402 24.4449V24.4449Z" fill="currentColor"/>
<path d="M40.243 25.2026L25.3049 40.1114C24.8391 40.5764 24.8391 41.3308 25.3049 41.7962C25.7712 42.2616 26.5271 42.2616 26.9934 41.7962L41.9315 26.8873C42.3978 26.4224 42.3978 25.668 41.9315 25.2026C41.4652 24.7372 40.7093 24.7372 40.243 25.2026V25.2026Z" fill="currentColor"/>
<path d="M55.3281 56.8516C55.7944 57.3156 56.5503 57.3156 57.0166 56.8488C57.482 56.3829 57.4806 55.6285 57.0138 55.164L46.2539 44.4595C45.7871 43.9951 45.0308 43.9965 44.5658 44.4623C44.1 44.9287 44.1014 45.6826 44.5682 46.1471L55.3281 56.8516Z" fill="currentColor"/>
</g>
<defs>
<clipPath id="clip0_1013_2770">
<rect width="61" height="61" fill="white" transform="translate(3 3)"/>
</clipPath>
</defs>
</svg>
