<svg width="40" height="40" viewBox="0 0 40 40" fill="none" xmlns="http://www.w3.org/2000/svg">
<path d="M36.4841 11.1719H33.6038C34.016 12.6948 34.2374 14.2955 34.2374 15.947C34.2374 26.0326 26.0322 34.2377 15.9467 34.2377C15.0715 34.2377 14.1982 34.1729 13.3345 34.0481C13.8748 35.2962 15.118 36.1719 16.5622 36.1719H33.1703L38.1398 39.7767C38.3437 39.9246 38.5852 40 38.828 40C39.0098 40 39.1923 39.9577 39.3603 39.872C39.7527 39.672 39.9997 39.2687 39.9997 38.8281V14.6875C39.9997 12.749 38.4226 11.1719 36.4841 11.1719Z" fill="#930505"/>
<path d="M31.894 15.947C31.894 7.15383 24.7402 0 15.947 0C7.15391 0 0 7.15383 0 15.947C0 19.007 0.861562 21.9567 2.49758 24.5172L0.0727344 31.0781C-0.0858594 31.5073 0.0197656 31.9895 0.343281 32.313C0.567031 32.5368 0.866641 32.6563 1.17211 32.6563C1.30836 32.6563 1.44578 32.6325 1.5782 32.5836L8.47109 30.0359C10.7623 31.2531 13.3347 31.894 15.947 31.894C24.7402 31.894 31.894 24.7402 31.894 15.947ZM7.8125 19.2046C7.8125 19.8518 7.28781 20.3765 6.64062 20.3765C5.99344 20.3765 5.46875 19.8518 5.46875 19.2046V12.6705C5.46875 12.0233 5.99344 11.4986 6.64062 11.4986C7.28781 11.4986 7.8125 12.0233 7.8125 12.6705V19.2046ZM24.2188 12.6705C24.2188 12.0233 24.7435 11.4986 25.3907 11.4986C26.0379 11.4986 26.5626 12.0233 26.5626 12.6705V19.2046C26.5626 19.8518 26.0379 20.3765 25.3907 20.3765C24.7435 20.3765 24.2188 19.8518 24.2188 19.2046V12.6705ZM19.5313 14.5454C19.5313 13.8982 20.056 13.3735 20.7032 13.3735C21.3504 13.3735 21.8751 13.8982 21.8751 14.5454V17.3297C21.8751 17.9769 21.3504 18.5016 20.7032 18.5016C20.056 18.5016 19.5313 17.9769 19.5313 17.3297V14.5454ZM12.5 17.3297C12.5 17.9769 11.9753 18.5016 11.3281 18.5016C10.6809 18.5016 10.1562 17.9769 10.1562 17.3297V14.5454C10.1562 13.8982 10.6809 13.3735 11.3281 13.3735C11.9753 13.3735 12.5 13.8982 12.5 14.5454V17.3297ZM14.8438 21.7188V10.1562C14.8438 9.50906 15.3685 8.98438 16.0157 8.98438C16.6629 8.98438 17.1876 9.50906 17.1876 10.1562V21.7188C17.1876 22.3659 16.6629 22.8906 16.0157 22.8906C15.3685 22.8906 14.8438 22.366 14.8438 21.7188Z" fill="#930505"/>
</svg>
