<svg width="67" height="67" viewBox="0 0 67 67" fill="none" xmlns="http://www.w3.org/2000/svg">
<path d="M60.1856 9.62891H17.8574C15.8219 9.62891 14.166 11.2848 14.166 13.3203V19.2088L2.9774 8.02065C2.49723 7.53999 1.71809 7.53999 1.23744 8.02065C0.75679 8.50082 0.75679 9.27995 1.23744 9.76061L15.731 24.2542L8.07328 31.9119L2.9774 26.8161C2.49723 26.3359 1.71809 26.3359 1.23744 26.8161C0.75679 27.2967 0.75679 28.0759 1.23744 28.5565L11.4657 38.7848L11.4643 39.8922C11.46 42.7184 12.4318 45.4932 14.166 47.7066V55.6485C14.166 57.684 15.8219 59.3399 17.8574 59.3399H60.1856C62.2211 59.3399 63.877 57.684 63.877 55.6485V27.5923C63.877 26.9127 63.3262 26.3618 62.6465 26.3618C61.9669 26.3618 61.416 26.9127 61.416 27.5923V55.6485C61.416 56.3267 60.8643 56.8789 60.1856 56.8789H34.4971C34.5486 56.8333 34.599 56.7862 34.6485 56.7367C34.9638 56.4214 35.2066 56.0609 35.3782 55.6759C35.8651 55.9196 36.4053 56.0493 36.9658 56.0493C37.9146 56.0493 38.8066 55.6797 39.4781 55.0087C40.1491 54.3382 40.5187 53.4456 40.5187 52.4968C40.5187 51.9369 40.389 51.3971 40.1457 50.9107C40.5356 50.7357 40.8946 50.4906 41.2056 50.1796C41.8766 49.5086 42.2462 48.616 42.2462 47.6672C42.2462 46.7179 41.8766 45.8259 41.2056 45.1549L36.9677 40.917C38.2726 41.0121 39.5925 40.4507 40.4149 39.327L40.4553 39.2717C41.7444 37.5091 41.3719 35.0184 39.6247 33.7197C38.5226 32.9006 37.0297 31.7865 35.1873 30.4075C32.6029 28.4743 29.4032 27.4102 26.1756 27.4102C26.1703 27.4102 26.165 27.4102 26.1593 27.4102L22.3712 27.414L16.627 21.6697V13.3203C16.627 12.6416 17.1787 12.0898 17.8574 12.0898H30.7033V24.6378C30.7033 25.1357 31.0033 25.5842 31.4632 25.7745C31.9228 25.9653 32.4519 25.86 32.8038 25.5082L35.4777 22.8343L38.1515 25.5077C38.6317 25.9884 39.4108 25.9884 39.8915 25.5077L42.5653 22.8343L45.2387 25.5077C45.4743 25.7433 45.7891 25.8682 46.1092 25.8682C46.2678 25.8682 46.4279 25.8375 46.5798 25.7745C47.0397 25.5842 47.3397 25.1357 47.3397 24.6378V12.0898H60.1856C60.8643 12.0898 61.416 12.6416 61.416 13.3203V17.7486C61.416 18.4282 61.9669 18.979 62.6465 18.979C63.3262 18.979 63.877 18.4282 63.877 17.7486V13.3203C63.877 11.2848 62.2211 9.62891 60.1856 9.62891V9.62891ZM16.627 55.6485V50.2969L20.6476 54.3175C20.6481 54.318 20.6486 54.3185 20.6486 54.3185L23.209 56.8789H17.8574C17.1787 56.8789 16.627 56.3267 16.627 55.6485ZM26.1621 29.8706H26.1756C28.8749 29.8706 31.5512 30.7613 33.7127 32.3782C35.5574 33.7581 37.0527 34.8742 38.1568 35.6947C38.823 36.1902 38.9633 37.1429 38.4692 37.8182L38.4289 37.8735C37.9761 38.4921 37.1167 38.6512 36.4726 38.2359L31.7507 35.1919C31.1364 34.7963 30.327 34.9266 29.8684 35.4957C29.4094 36.0643 29.4532 36.8828 29.9699 37.3995L39.4656 46.8953C39.6718 47.1015 39.7853 47.3755 39.7853 47.6672C39.7853 47.959 39.6718 48.233 39.4656 48.4392C39.2594 48.6454 38.985 48.7593 38.6932 48.7593C38.4452 48.7593 38.2097 48.6761 38.0179 48.5242L33.2522 43.7586C33.2195 43.7259 33.1849 43.6956 33.1494 43.6672L32.6625 43.1803C32.1818 42.7002 31.4027 42.6997 30.922 43.1803C30.4419 43.6605 30.4419 44.4397 30.922 44.9203L36.1813 50.1796C36.2356 50.2339 36.2924 50.2858 36.3496 50.3363L37.7382 51.7249C37.9444 51.9311 38.0578 52.2051 38.0578 52.4968C38.0578 52.7886 37.9444 53.0626 37.7382 53.2688C37.532 53.475 37.2575 53.5889 36.9658 53.5889C36.6745 53.5889 36.4 53.475 36.1938 53.2688L34.8047 51.8797C34.7548 51.823 34.7033 51.7667 34.6485 51.7119L29.9737 47.0371C29.9405 47.0044 29.9059 46.9741 29.8704 46.9458L29.3835 46.4589C28.9033 45.9782 28.1242 45.9782 27.6435 46.4589C27.1629 46.939 27.1629 47.7182 27.6435 48.1988L32.9932 53.5485C33.3311 53.9768 33.3037 54.6016 32.9086 54.9967C32.4827 55.4221 31.7901 55.4221 31.3642 54.9967L29.8108 53.4432C29.7603 53.3856 29.7084 53.3293 29.6541 53.275L26.6952 50.3156C26.662 50.2829 26.6274 50.2527 26.5918 50.2243L26.1049 49.7374C25.6248 49.2568 24.8456 49.2568 24.365 49.7374C23.8843 50.2181 23.8843 50.9972 24.365 51.4778L27.9987 55.1116C28.1506 55.3034 28.2337 55.5389 28.2337 55.7869C28.2337 56.0786 28.1203 56.3531 27.9136 56.5593C27.7074 56.7655 27.4335 56.8789 27.1417 56.8789C26.8499 56.8789 26.576 56.7655 26.3698 56.5593L19.9247 50.1142C19.9242 50.1138 19.9238 50.1133 19.9238 50.1128L16.898 47.0876C15.0052 45.1943 13.9214 42.5733 13.9252 39.8965L13.9281 38.108L22.1607 29.8754L26.1621 29.8706ZM12.3583 36.197L9.81324 33.6524L17.471 25.9942L20.016 28.5392L12.3583 36.197ZM44.8787 21.6673L43.4353 20.2239C42.9547 19.7438 42.1755 19.7438 41.6954 20.2239L39.0215 22.8978L36.3476 20.2239C36.1073 19.9836 35.7925 19.8634 35.4777 19.8634C35.1628 19.8634 34.848 19.9836 34.6077 20.2239L33.1643 21.6673V12.0898H44.8787V21.6673Z" fill="currentColor"/>
<path d="M56.002 44.4703H48.127C47.4473 44.4703 46.8965 45.0212 46.8965 45.7008C46.8965 46.3805 47.4473 46.9313 48.127 46.9313H56.002C56.6816 46.9313 57.2324 46.3805 57.2324 45.7008C57.2324 45.0212 56.6816 44.4703 56.002 44.4703Z" fill="currentColor"/>
<path d="M56.0018 49.5457H50.6699C49.9903 49.5457 49.4395 50.0965 49.4395 50.7761C49.4395 51.4553 49.9903 52.0066 50.6699 52.0066H56.0018C56.6814 52.0066 57.2323 51.4553 57.2323 50.7761C57.2323 50.0965 56.6814 49.5457 56.0018 49.5457Z" fill="currentColor"/>
<path d="M45.7481 49.5452C45.4236 49.5452 45.1073 49.6769 44.8785 49.9057C44.6483 50.1344 44.5176 50.4522 44.5176 50.7756C44.5176 51.0996 44.6483 51.4168 44.8785 51.6456C45.1073 51.8744 45.4246 52.0061 45.7481 52.0061C46.072 52.0061 46.3892 51.8744 46.618 51.6456C46.8473 51.4168 46.9785 51.0996 46.9785 50.7756C46.9785 50.4522 46.8473 50.1344 46.618 49.9057C46.3892 49.6769 46.072 49.5452 45.7481 49.5452Z" fill="currentColor"/>
<path d="M62.6465 21.4399C62.323 21.4399 62.0053 21.5716 61.7765 21.8004C61.5477 22.0297 61.416 22.3469 61.416 22.6704C61.416 22.9944 61.5477 23.3116 61.7765 23.5404C62.0053 23.7692 62.323 23.9009 62.6465 23.9009C62.97 23.9009 63.2877 23.7692 63.5165 23.5404C63.7453 23.3116 63.877 22.9944 63.877 22.6704C63.877 22.3469 63.7453 22.0297 63.5165 21.8004C63.2877 21.5716 62.97 21.4399 62.6465 21.4399Z" fill="currentColor"/>
</svg>
