<svg width="65" height="65" viewBox="0 0 65 65" fill="none" xmlns="http://www.w3.org/2000/svg">
<path d="M54.1667 11.4768V5.41667C54.1629 2.42667 51.74 0.00379167 48.75 0H5.41667C2.42667 0.00379167 0.00379167 2.42667 0 5.41667V29.25C0.00839585 32.0166 2.10546 34.3303 4.85767 34.6109L8.92992 45.1818C10.0057 47.973 13.1403 49.3634 15.9318 48.289L41.3617 38.493C39.6045 43.0828 40.1045 48.2316 42.711 52.3979L43.3333 53.3932V63.9167C43.3333 64.5152 43.8181 65 44.4167 65H63.9167C64.5152 65 65 64.5152 65 63.9167V28.1572C64.9897 24.4107 63.4982 20.8211 60.8495 18.1716L54.1667 11.4768ZM54.1667 17.9557L57.4546 26.4907C58.0989 28.1661 57.2639 30.046 55.5888 30.6908L53.7095 31.4167C54.0096 30.7336 54.165 29.9953 54.1667 29.25V17.9557ZM2.16667 29.25V5.41667C2.16667 3.62212 3.62212 2.16667 5.41667 2.16667H48.75C50.5445 2.16667 52 3.62212 52 5.41667V12.3023H51.9905L52 12.327V29.25C51.9916 29.439 51.967 29.6265 51.9263 29.8112L42.003 19.8867C39.7724 17.7076 36.2164 17.6908 33.9657 19.8472C31.7146 22.0049 31.5794 25.5583 33.6613 27.8793L37.8917 32.5H5.41667C3.62212 32.5 2.16667 31.0445 2.16667 29.25ZM16.0452 34.6667L8.34167 37.6326L7.202 34.6667H16.0452ZM15.1526 46.2667C13.4777 46.9124 11.5968 46.0774 10.9514 44.4026L9.12383 39.65L22.0556 34.6667V34.6602H39.8775L41.2856 36.1952L15.1526 46.2667ZM62.8333 62.8333H45.5V54.1667H62.8333V62.8333ZM62.8333 52H45.0179L44.548 51.2492C41.9066 47.028 41.8015 41.6964 44.2737 37.375C44.5077 36.966 44.4502 36.4525 44.1317 36.1053L35.2541 26.4203C33.9303 24.9714 34.0047 22.7313 35.422 21.3742C36.8398 20.0167 39.081 20.039 40.4709 21.4235L57.7341 38.6826L59.2659 37.1507L55.2576 33.1424L56.3691 32.7091C59.1581 31.6331 60.548 28.5011 59.475 25.7105L55.8082 16.1891L59.3176 19.7058C61.5601 21.9478 62.8247 24.986 62.8333 28.1572V52Z" fill="currentColor"/>
<path d="M12.3502 15.1667C13.9058 15.1667 15.1668 13.9057 15.1668 12.35V7.15004C15.1668 5.59437 13.9058 4.33337 12.3502 4.33337H7.15016C5.5945 4.33337 4.3335 5.59437 4.3335 7.15004V12.35C4.3335 13.9057 5.5945 15.1667 7.15016 15.1667H12.3502ZM6.50016 12.35V10.8334H8.66683V8.66671H6.50016V7.15004C6.50016 6.79119 6.79131 6.50004 7.15016 6.50004H12.3502C12.709 6.50004 13.0002 6.79119 13.0002 7.15004V8.66671H10.8335V10.8334H13.0002V12.35C13.0002 12.7089 12.709 13 12.3502 13H7.15016C6.79131 13 6.50016 12.7089 6.50016 12.35Z" fill="currentColor"/>
<path d="M5.4165 18.4167H9.74984V20.5834H5.4165V18.4167Z" fill="currentColor"/>
<path d="M5.4165 24.9166H9.74984V27.0833H5.4165V24.9166Z" fill="currentColor"/>
<path d="M24.9165 24.9166H29.2498V27.0833H24.9165V24.9166Z" fill="currentColor"/>
<path d="M11.9165 18.4167H16.2498V20.5834H11.9165V18.4167Z" fill="currentColor"/>
<path d="M18.4165 18.4167H22.7498V20.5834H18.4165V18.4167Z" fill="currentColor"/>
<path d="M24.9165 18.4167H29.2498V20.5834H24.9165V18.4167Z" fill="currentColor"/>
<path d="M45.5 5.41663H47.6667V8.66662H45.5V5.41663Z" fill="currentColor"/>
<path d="M41.1665 5.41663H43.3332V8.66662H41.1665V5.41663Z" fill="currentColor"/>
<path d="M36.8335 5.41663H39.0002V8.66662H36.8335V5.41663Z" fill="currentColor"/>
<path d="M32.5 5.41663H34.6667V8.66662H32.5V5.41663Z" fill="currentColor"/>
<path d="M47.6665 56.3334H49.8332V58.5H47.6665V56.3334Z" fill="currentColor"/>
</svg>
