<svg width="44" height="56" viewBox="0 0 44 56" fill="none" xmlns="http://www.w3.org/2000/svg">
<g clip-path="url(#pdf_clip)">
<path d="M1.53488 55.5H1.52225L1.50964 55.5006C1.28239 55.5121 1.05834 55.4516 0.870921 55.3295C0.706762 55.2225 0.578979 55.0738 0.5 54.9021V1.93C0.5 1.37474 0.646041 1.019 0.824832 0.810294C0.998067 0.608077 1.23828 0.5 1.53488 0.5H31.2045C31.3112 0.502561 31.4107 0.545386 31.4827 0.616258L31.4831 0.61669L43.3426 12.2667L43.3436 12.2676C43.37 12.2935 43.3887 12.3141 43.409 12.3881C43.4359 12.4866 43.4591 12.6633 43.4591 13V54.9018C43.3818 55.0691 43.2582 55.2146 43.0996 55.3208C42.9178 55.4424 42.7001 55.5057 42.4776 55.5002L42.4776 55.5H42.4651H1.53488Z" fill="#E8EAED" stroke="#E8EAED"/>
<path d="M31.7209 0.150002V12H43.8465L31.7209 0.150002Z" fill="#A3ABB8"/>
<path d="M13.3126 33.32C12.9433 33.3252 12.5829 33.209 12.2893 32.99C11.9077 32.7547 11.5998 32.4211 11.3994 32.0259C11.199 31.6308 11.1139 31.1893 11.1535 30.75C11.3377 29.12 13.3944 27.42 17.293 25.68C18.8953 22.2106 20.1927 18.6143 21.1712 14.93C20.1479 12.76 19.1247 9.93 19.8819 8.29C19.9687 8.01495 20.1177 7.7625 20.3178 7.55132C20.518 7.34014 20.7642 7.17565 21.0381 7.07C21.3723 6.97896 21.7152 6.92199 22.0614 6.9C22.573 6.9 23.0335 7.55 23.3507 7.9C23.6679 8.25 24.374 9.07 22.9721 14.7C24.3302 17.4499 26.0842 19.9958 28.1805 22.26C29.3268 22.0745 30.4875 21.9875 31.6493 22C33.2558 22 34.2177 22.36 34.6167 23.12C34.773 23.4789 34.8184 23.8745 34.7475 24.2583C34.6766 24.6421 34.4924 24.9972 34.2177 25.28C33.9691 25.6463 33.6315 25.9468 33.2351 26.1544C32.8387 26.3621 32.3958 26.4705 31.9461 26.47C30.6977 26.47 29.2549 25.7 27.6381 24.19C24.5405 24.8392 21.5146 25.7803 18.6028 27C17.9172 28.4823 17.1024 29.9042 16.1674 31.25C15.1135 32.65 14.213 33.32 13.3126 33.32ZM16.0344 28.19C13.8447 29.39 12.9647 30.38 12.893 30.93C12.893 31.02 12.893 31.26 13.333 31.62C13.4865 31.59 14.387 31.19 16.0447 28.2L16.0344 28.19ZM29.9916 23.75C30.8205 24.38 31.0149 24.69 31.5777 24.69C31.8045 24.7104 32.0331 24.6815 32.2471 24.6054C32.4612 24.5294 32.6554 24.408 32.8158 24.25C32.9156 24.1225 32.995 23.9809 33.0512 23.83C32.9284 23.76 32.7544 23.63 31.854 23.63C31.231 23.6354 30.609 23.6788 29.9916 23.76V23.75ZM22.3479 17.17C21.583 19.7381 20.6709 22.2621 19.6158 24.73C21.7839 23.9166 24.006 23.2484 26.267 22.73C24.7763 21.0074 23.4636 19.145 22.3479 17.17ZM21.7237 8.71C21.3291 9.16353 21.121 9.74422 21.1399 10.3393C21.1588 10.9343 21.4034 11.5013 21.826 11.93C22.7981 9.81 21.7749 8.7 21.734 8.71H21.7237Z" fill="#BAC0CA"/>
<path d="M0 40H44V54C44 55.1046 43.1046 56 42 56H2C0.895431 56 0 55.1046 0 54V40Z" fill="#523992"/>
<path opacity="0.87" d="M11.4467 52C11.3667 52 11.2987 51.972 11.2427 51.916C11.1867 51.86 11.1587 51.792 11.1587 51.712V43.9C11.1587 43.812 11.1827 43.74 11.2307 43.684C11.2867 43.628 11.3587 43.6 11.4467 43.6H14.6627C15.6227 43.6 16.3787 43.828 16.9307 44.284C17.4827 44.732 17.7587 45.392 17.7587 46.264C17.7587 47.136 17.4827 47.796 16.9307 48.244C16.3867 48.684 15.6307 48.904 14.6627 48.904H12.8747V51.712C12.8747 51.792 12.8467 51.86 12.7907 51.916C12.7427 51.972 12.6747 52 12.5867 52H11.4467ZM14.6027 47.572C15.0667 47.572 15.4227 47.464 15.6707 47.248C15.9187 47.024 16.0427 46.696 16.0427 46.264C16.0427 45.848 15.9227 45.524 15.6827 45.292C15.4427 45.052 15.0827 44.932 14.6027 44.932H12.8507V47.572H14.6027ZM19.3568 52C19.2768 52 19.2088 51.972 19.1528 51.916C19.0968 51.86 19.0688 51.792 19.0688 51.712V43.9C19.0688 43.812 19.0928 43.74 19.1408 43.684C19.1968 43.628 19.2688 43.6 19.3568 43.6H22.2848C24.6368 43.6 25.8368 44.688 25.8848 46.864C25.9008 47.328 25.9088 47.64 25.9088 47.8C25.9088 47.952 25.9008 48.26 25.8848 48.724C25.8528 49.844 25.5528 50.672 24.9848 51.208C24.4168 51.736 23.5368 52 22.3448 52H19.3568ZM22.2848 50.62C22.9568 50.62 23.4408 50.472 23.7368 50.176C24.0328 49.872 24.1888 49.376 24.2048 48.688C24.2208 48.208 24.2288 47.908 24.2288 47.788C24.2288 47.66 24.2208 47.364 24.2048 46.9C24.1888 46.244 24.0208 45.76 23.7008 45.448C23.3888 45.136 22.8968 44.98 22.2248 44.98H20.7368V50.62H22.2848ZM27.7943 52C27.7143 52 27.6463 51.972 27.5903 51.916C27.5343 51.86 27.5063 51.792 27.5063 51.712V43.9C27.5063 43.812 27.5303 43.74 27.5783 43.684C27.6343 43.628 27.7063 43.6 27.7943 43.6H33.0023C33.0903 43.6 33.1623 43.628 33.2183 43.684C33.2743 43.74 33.3023 43.812 33.3023 43.9V44.74C33.3023 44.828 33.2743 44.9 33.2183 44.956C33.1623 45.004 33.0903 45.028 33.0023 45.028H29.1503V47.308H32.7623C32.8503 47.308 32.9223 47.336 32.9783 47.392C33.0343 47.448 33.0623 47.52 33.0623 47.608V48.448C33.0623 48.536 33.0343 48.608 32.9783 48.664C32.9223 48.712 32.8503 48.736 32.7623 48.736H29.1503V51.712C29.1503 51.8 29.1223 51.872 29.0663 51.928C29.0103 51.976 28.9383 52 28.8503 52H27.7943Z" fill="white"/>
</g>
<defs>
<clipPath id="pdf_clip">
<rect width="44" height="56" fill="white"/>
</clipPath>
</defs>
</svg>
