<svg width="40" height="40" viewBox="0 0 40 40" fill="none" xmlns="http://www.w3.org/2000/svg">
<path d="M26.875 13.75C27.3718 13.7485 27.8479 13.5505 28.1992 13.1992C28.5505 12.8479 28.7485 12.3718 28.75 11.875V11.25H25V11.875C25.0015 12.3718 25.1995 12.8479 25.5508 13.1992C25.9021 13.5505 26.3782 13.7485 26.875 13.75Z" fill="#930505"/>
<path d="M28.75 7.5C28.75 7.00272 28.5525 6.52581 28.2008 6.17417C27.8492 5.82254 27.3723 5.625 26.875 5.625C26.3777 5.625 25.9008 5.82254 25.5492 6.17417C25.1975 6.52581 25 7.00272 25 7.5V10H28.75V7.5Z" fill="#930505"/>
<path d="M13.125 32.5H14.375C14.5408 32.5 14.6997 32.4342 14.8169 32.3169C14.9342 32.1997 15 32.0408 15 31.875C15 31.7092 14.9342 31.5503 14.8169 31.4331C14.6997 31.3158 14.5408 31.25 14.375 31.25H13.125C12.9592 31.25 12.8003 31.3158 12.6831 31.4331C12.5658 31.5503 12.5 31.7092 12.5 31.875C12.5 32.0408 12.5658 32.1997 12.6831 32.3169C12.8003 32.4342 12.9592 32.5 13.125 32.5Z" fill="#930505"/>
<path d="M23.75 35C23.749 35.3312 23.617 35.6486 23.3828 35.8828C23.1486 36.117 22.8312 36.249 22.5 36.25H5C4.66878 36.249 4.35142 36.117 4.11721 35.8828C3.883 35.6486 3.75099 35.3312 3.75 35V7.5C3.75099 7.16878 3.883 6.85142 4.11721 6.61721C4.35142 6.383 4.66878 6.25099 5 6.25H15V5H3.125C2.95924 5 2.80027 5.06585 2.68306 5.18306C2.56585 5.30027 2.5 5.45924 2.5 5.625V36.875C2.5 37.0408 2.56585 37.1997 2.68306 37.3169C2.80027 37.4342 2.95924 37.5 3.125 37.5H24.375C24.5408 37.5 24.6997 37.4342 24.8169 37.3169C24.9342 37.1997 25 37.0408 25 36.875V25H23.75V35Z" fill="#930505"/>
<path d="M15 21.6187V7.5H5V35H22.5V25H13.125C13.0014 25.0005 12.8804 24.9638 12.7779 24.8947C12.6754 24.8256 12.596 24.7273 12.55 24.6125C12.5021 24.4987 12.4891 24.3732 12.5124 24.252C12.5358 24.1307 12.5945 24.0191 12.6813 23.9313L15 21.6187ZM13.125 30H14.375C14.8723 30 15.3492 30.1975 15.7008 30.5492C16.0525 30.9008 16.25 31.3777 16.25 31.875C16.25 32.3723 16.0525 32.8492 15.7008 33.2008C15.3492 33.5525 14.8723 33.75 14.375 33.75H13.125C12.6277 33.75 12.1508 33.5525 11.7992 33.2008C11.4475 32.8492 11.25 32.3723 11.25 31.875C11.25 31.3777 11.4475 30.9008 11.7992 30.5492C12.1508 30.1975 12.6277 30 13.125 30Z" fill="#930505"/>
<path d="M36.8746 2.5H16.8746C16.7088 2.5 16.5499 2.56585 16.4327 2.68306C16.3155 2.80027 16.2496 2.95924 16.2496 3.125V21.875C16.2484 22.0407 16.1835 22.1996 16.0684 22.3187L14.6309 23.75H36.8746C37.0404 23.75 37.1993 23.6842 37.3166 23.5669C37.4338 23.4497 37.4996 23.2908 37.4996 23.125V3.125C37.4996 2.95924 37.4338 2.80027 37.3166 2.68306C37.1993 2.56585 37.0404 2.5 36.8746 2.5ZM23.7496 7.5C23.7496 6.6712 24.0789 5.87634 24.6649 5.29029C25.251 4.70424 26.0458 4.375 26.8746 4.375C27.7034 4.375 28.4983 4.70424 29.0843 5.29029C29.6704 5.87634 29.9996 6.6712 29.9996 7.5V11.875C29.9996 12.7038 29.6704 13.4987 29.0843 14.0847C28.4983 14.6708 27.7034 15 26.8746 15C26.0458 15 25.251 14.6708 24.6649 14.0847C24.0789 13.4987 23.7496 12.7038 23.7496 11.875V7.5ZM32.4996 11.875C32.4977 13.2579 31.9871 14.5917 31.065 15.6223C30.1429 16.6529 28.8738 17.3081 27.4996 17.4631V20.625H29.3746V21.875H24.3746V20.625H26.2496V17.4631C24.8754 17.3081 23.6064 16.6529 22.6843 15.6223C21.7621 14.5917 21.2515 13.2579 21.2496 11.875V9.375H22.4996V11.875C22.4996 13.0353 22.9605 14.1481 23.781 14.9686C24.6015 15.7891 25.7143 16.25 26.8746 16.25C28.0349 16.25 29.1477 15.7891 29.9682 14.9686C30.7887 14.1481 31.2496 13.0353 31.2496 11.875V9.375H32.4996V11.875Z" fill="#930505"/>
</svg>
