<svg width="40" height="40" viewBox="0 0 40 40" fill="none" xmlns="http://www.w3.org/2000/svg">
<path d="M15.3125 13.75C16.1754 13.75 16.875 13.0504 16.875 12.1875C16.875 11.3246 16.1754 10.625 15.3125 10.625C14.4496 10.625 13.75 11.3246 13.75 12.1875C13.75 13.0504 14.4496 13.75 15.3125 13.75Z" fill="#930505"/>
<path d="M10.625 33.125H28.75V6.875H10.625V33.125ZM26.7969 31.875C26.6578 31.875 26.5219 31.8338 26.4062 31.7565C26.2906 31.6792 26.2005 31.5694 26.1473 31.4409C26.0941 31.3125 26.0801 31.1711 26.1073 31.0347C26.1344 30.8983 26.2014 30.773 26.2997 30.6747C26.398 30.5764 26.5233 30.5094 26.6597 30.4823C26.7961 30.4551 26.9375 30.4691 27.0659 30.5223C27.1944 30.5755 27.3042 30.6656 27.3815 30.7812C27.4588 30.8969 27.5 31.0328 27.5 31.1719C27.5 31.3584 27.4259 31.5372 27.2941 31.6691C27.1622 31.8009 26.9834 31.875 26.7969 31.875ZM26.9531 8.125C27.0922 8.125 27.2281 8.16624 27.3438 8.2435C27.4594 8.32076 27.5495 8.43057 27.6027 8.55905C27.6559 8.68753 27.6699 8.82891 27.6427 8.9653C27.6156 9.10169 27.5486 9.22698 27.4503 9.32531C27.352 9.42364 27.2267 9.49061 27.0903 9.51774C26.9539 9.54487 26.8125 9.53095 26.6841 9.47773C26.5556 9.42451 26.4458 9.33439 26.3685 9.21876C26.2912 9.10313 26.25 8.96719 26.25 8.82812C26.25 8.64164 26.3241 8.4628 26.4559 8.33094C26.5878 8.19908 26.7666 8.125 26.9531 8.125ZM27.5 23.125C27.5 24.6084 27.0601 26.0584 26.236 27.2918C25.4119 28.5251 24.2406 29.4864 22.8701 30.0541C21.4997 30.6218 19.9917 30.7703 18.5368 30.4809C17.082 30.1915 15.7456 29.4772 14.6967 28.4283C13.6478 27.3794 12.9335 26.043 12.6441 24.5882C12.3547 23.1333 12.5032 21.6253 13.0709 20.2549C13.6386 18.8844 14.5999 17.7131 15.8332 16.889C17.0666 16.0649 18.5166 15.625 20 15.625C21.9884 15.6272 23.8948 16.4181 25.3008 17.8242C26.7069 19.2302 27.4978 21.1366 27.5 23.125ZM15.3125 9.375C15.8688 9.375 16.4125 9.53995 16.875 9.84899C17.3376 10.158 17.698 10.5973 17.9109 11.1112C18.1238 11.6251 18.1795 12.1906 18.071 12.7362C17.9624 13.2818 17.6946 13.7829 17.3012 14.1762C16.9079 14.5696 16.4068 14.8374 15.8612 14.946C15.3156 15.0545 14.7501 14.9988 14.2362 14.7859C13.7223 14.573 13.283 14.2126 12.974 13.75C12.665 13.2875 12.5 12.7438 12.5 12.1875C12.5008 11.4418 12.7974 10.7269 13.3247 10.1997C13.8519 9.67241 14.5668 9.37583 15.3125 9.375ZM12.5781 7.96875C12.7172 7.96875 12.8531 8.00999 12.9688 8.08725C13.0844 8.16451 13.1745 8.27432 13.2277 8.4028C13.2809 8.53128 13.2949 8.67266 13.2677 8.80905C13.2406 8.94544 13.1736 9.07073 13.0753 9.16906C12.977 9.26739 12.8517 9.33436 12.7153 9.36149C12.5789 9.38862 12.4375 9.3747 12.3091 9.32148C12.1806 9.26826 12.0708 9.17814 11.9935 9.06251C11.9162 8.94688 11.875 8.81094 11.875 8.67188C11.875 8.48539 11.9491 8.30655 12.0809 8.17469C12.2128 8.04283 12.3916 7.96875 12.5781 7.96875ZM12.5781 30.4688C12.7172 30.4688 12.8531 30.51 12.9688 30.5872C13.0844 30.6645 13.1745 30.7743 13.2277 30.9028C13.2809 31.0313 13.2949 31.1727 13.2677 31.309C13.2406 31.4454 13.1736 31.5707 13.0753 31.6691C12.977 31.7674 12.8517 31.8344 12.7153 31.8615C12.5789 31.8886 12.4375 31.8747 12.3091 31.8215C12.1806 31.7683 12.0708 31.6781 11.9935 31.5625C11.9162 31.4469 11.875 31.3109 11.875 31.1719C11.875 30.9854 11.9491 30.8066 12.0809 30.6747C12.2128 30.5428 12.3916 30.4688 12.5781 30.4688Z" fill="#930505"/>
<path d="M20 26.8749C20.7417 26.8749 21.4667 26.655 22.0834 26.2429C22.7001 25.8309 23.1807 25.2452 23.4645 24.56C23.7484 23.8748 23.8226 23.1208 23.6779 22.3933C23.5332 21.6659 23.1761 20.9977 22.6516 20.4733C22.1272 19.9488 21.459 19.5917 20.7316 19.447C20.0042 19.3023 19.2502 19.3766 18.5649 19.6604C17.8797 19.9442 17.294 20.4249 16.882 21.0416C16.4699 21.6582 16.25 22.3833 16.25 23.1249C16.2511 24.1192 16.6465 25.0723 17.3496 25.7754C18.0526 26.4784 19.0058 26.8738 20 26.8749ZM20 21.8749C20.2472 21.8749 20.4889 21.9482 20.6945 22.0856C20.9 22.2229 21.0602 22.4182 21.1548 22.6466C21.2494 22.875 21.2742 23.1263 21.226 23.3688C21.1777 23.6113 21.0587 23.834 20.8839 24.0088C20.7091 24.1836 20.4863 24.3027 20.2439 24.3509C20.0014 24.3991 19.75 24.3744 19.5216 24.2798C19.2932 24.1852 19.098 24.025 18.9607 23.8194C18.8233 23.6138 18.75 23.3722 18.75 23.1249C18.75 22.7934 18.8817 22.4755 19.1161 22.2411C19.3505 22.0066 19.6685 21.8749 20 21.8749Z" fill="#930505"/>
<path d="M20 29.3749C21.2361 29.3749 22.4445 29.0083 23.4723 28.3216C24.5001 27.6348 25.3012 26.6587 25.7742 25.5167C26.2473 24.3746 26.371 23.118 26.1299 21.9056C25.8887 20.6932 25.2935 19.5796 24.4194 18.7055C23.5453 17.8314 22.4317 17.2362 21.2193 16.995C20.0069 16.7538 18.7503 16.8776 17.6082 17.3507C16.4662 17.8237 15.4901 18.6248 14.8033 19.6526C14.1166 20.6804 13.75 21.8888 13.75 23.1249C13.7519 24.7819 14.411 26.3705 15.5827 27.5422C16.7543 28.7139 18.343 29.373 20 29.3749ZM20 18.1249C20.9889 18.1249 21.9556 18.4182 22.7778 18.9676C23.6001 19.517 24.2409 20.2979 24.6194 21.2115C24.9978 22.1251 25.0968 23.1304 24.9039 24.1003C24.711 25.0702 24.2348 25.9612 23.5355 26.6604C22.8362 27.3597 21.9453 27.8359 20.9754 28.0288C20.0055 28.2217 19.0002 28.1227 18.0866 27.7443C17.1729 27.3658 16.3921 26.725 15.8426 25.9027C15.2932 25.0805 15 24.1138 15 23.1249C15.0015 21.7993 15.5287 20.5284 16.4661 19.591C17.4035 18.6537 18.6744 18.1264 20 18.1249Z" fill="#930505"/>
<path d="M29.6875 4.375H9.6875C9.27325 4.37548 8.87609 4.54025 8.58317 4.83317C8.29025 5.12609 8.12548 5.52325 8.125 5.9375V34.0625C8.12548 34.4768 8.29025 34.8739 8.58317 35.1668C8.87609 35.4598 9.27325 35.6245 9.6875 35.625H29.6875C30.1018 35.6245 30.4989 35.4598 30.7918 35.1668C31.0848 34.8739 31.2495 34.4768 31.25 34.0625V5.9375C31.2495 5.52325 31.0848 5.12609 30.7918 4.83317C30.4989 4.54025 30.1018 4.37548 29.6875 4.375ZM30 33.75C30 33.9158 29.9342 34.0747 29.8169 34.1919C29.6997 34.3092 29.5408 34.375 29.375 34.375H10C9.83424 34.375 9.67527 34.3092 9.55806 34.1919C9.44085 34.0747 9.375 33.9158 9.375 33.75V6.25C9.375 6.08424 9.44085 5.92527 9.55806 5.80806C9.67527 5.69085 9.83424 5.625 10 5.625H29.375C29.5408 5.625 29.6997 5.69085 29.8169 5.80806C29.9342 5.92527 30 6.08424 30 6.25V33.75Z" fill="#930505"/>
<path d="M36.9625 13.4998C36.8505 13.3791 36.6954 13.3074 36.5308 13.3004C36.3662 13.2934 36.2056 13.3516 36.0837 13.4624C35.9619 13.5733 35.8887 13.7277 35.8801 13.8922C35.8715 14.0567 35.9282 14.2179 36.0378 14.3408C36.979 15.3762 37.5006 16.7253 37.5006 18.1245C37.5006 19.5238 36.979 20.8728 36.0378 21.9082C35.9262 22.0308 35.8679 22.1927 35.8757 22.3584C35.8835 22.524 35.9567 22.6797 36.0794 22.7913C36.202 22.903 36.3639 22.9613 36.5295 22.9535C36.6952 22.9457 36.8509 22.8724 36.9625 22.7498C38.113 21.4843 38.7505 19.8354 38.7505 18.1251C38.7505 16.4148 38.113 14.766 36.9625 13.5005V13.4998Z" fill="#930505"/>
<path d="M35.1121 15.1819C35.0568 15.1212 34.9901 15.0719 34.9158 15.037C34.8416 15.002 34.7611 14.9821 34.6791 14.9782C34.5971 14.9743 34.5152 14.9867 34.4379 15.0145C34.3607 15.0423 34.2897 15.085 34.229 15.1403C34.1683 15.1955 34.119 15.2622 34.0841 15.3365C34.0491 15.4108 34.0291 15.4912 34.0253 15.5732C34.0214 15.6552 34.0337 15.7372 34.0616 15.8144C34.0894 15.8917 34.1321 15.9627 34.1874 16.0234C34.7102 16.5986 34.9999 17.348 34.9999 18.1253C34.9999 18.9027 34.7102 19.6521 34.1874 20.2273C34.1318 20.288 34.0888 20.359 34.0608 20.4363C34.0328 20.5136 34.0203 20.5957 34.0241 20.6779C34.0279 20.76 34.0478 20.8406 34.0828 20.915C34.1177 20.9895 34.1671 21.0563 34.2279 21.1116C34.2887 21.1669 34.3599 21.2097 34.4373 21.2375C34.5147 21.2653 34.5968 21.2775 34.6789 21.2735C34.7611 21.2695 34.8416 21.2493 34.9159 21.2141C34.9903 21.1789 35.0569 21.1294 35.1121 21.0684C35.8442 20.2631 36.2499 19.2137 36.2499 18.1253C36.2499 17.0369 35.8442 15.9876 35.1121 15.1823V15.1819Z" fill="#930505"/>
<path d="M2.49992 18.1249C2.49858 16.7254 3.02028 15.3759 3.96266 14.3412C4.0179 14.2805 4.06064 14.2095 4.08845 14.1323C4.11625 14.055 4.12857 13.9731 4.1247 13.8911C4.12083 13.8091 4.10084 13.7287 4.06589 13.6544C4.03094 13.5801 3.98169 13.5134 3.92098 13.4582C3.86026 13.403 3.78926 13.3602 3.71203 13.3324C3.63479 13.3046 3.55284 13.2923 3.47084 13.2962C3.38885 13.3 3.30842 13.32 3.23415 13.355C3.15987 13.3899 3.09321 13.4392 3.03797 13.4999C1.88748 14.7654 1.25 16.4143 1.25 18.1246C1.25 19.8349 1.88748 21.4838 3.03797 22.7493C3.14997 22.87 3.30512 22.9417 3.46968 22.9487C3.63425 22.9557 3.79493 22.8975 3.91678 22.7867C4.03863 22.6758 4.11181 22.5214 4.1204 22.3569C4.12899 22.1924 4.0723 22.0312 3.96266 21.9083C3.02036 20.8737 2.49866 19.5243 2.49992 18.1249Z" fill="#930505"/>
<path d="M5.77067 15.14C5.64805 15.0284 5.48616 14.9702 5.32061 14.978C5.15505 14.9859 4.99939 15.0592 4.88786 15.1818C4.15569 15.9871 3.75 17.0364 3.75 18.1248C3.75 19.2132 4.15569 20.2625 4.88786 21.0678C4.99944 21.1904 5.15517 21.2637 5.32077 21.2715C5.48638 21.2793 5.64829 21.221 5.7709 21.1094C5.89351 20.9978 5.96678 20.8421 5.97457 20.6765C5.98236 20.5109 5.92405 20.349 5.81247 20.2263C5.28962 19.6511 4.99991 18.9017 4.99991 18.1244C4.99991 17.3471 5.28962 16.5977 5.81247 16.0225C5.92388 15.8999 5.98206 15.738 5.97422 15.5726C5.96639 15.4071 5.89317 15.2515 5.77067 15.14Z" fill="#930505"/>
</svg>
