<svg width="72" height="67" viewBox="0 0 72 67" fill="none" xmlns="http://www.w3.org/2000/svg">
<path d="M44.3203 50.7266C43.6519 50.7266 43.1094 51.2778 43.1094 51.957C43.1094 52.6362 43.6519 53.1875 44.3203 53.1875C44.9887 53.1875 45.5312 52.6362 45.5312 51.957C45.5312 51.2778 44.9887 50.7266 44.3203 50.7266Z" fill="currentColor"/>
<path d="M47.3019 46.7476L41.5463 44.7985L39.4801 40.5993C41.3415 38.6741 42.634 36.1268 43.0698 33.4699L43.3275 31.9004H45.5312C47.5344 31.9004 49.1641 30.2444 49.1641 28.209V20.457C49.1641 10.2798 41.0157 2 31 2C20.9587 2 12.8359 10.2561 12.8359 20.457V28.209C12.8359 29.813 13.8484 31.1808 15.2578 31.6887V33.1309C15.2578 35.1663 16.8875 36.8223 18.8906 36.8223H19.9541C20.479 37.981 21.1585 39.0542 21.9853 40.0183C22.1568 40.2186 22.3356 40.4128 22.5188 40.6016L20.4537 44.7985L14.698 46.7477C8.00575 49.0152 3.14844 56.174 3.14844 63.7695C3.14844 64.4491 3.69057 65 4.35938 65H57.6406C58.3093 65 58.8516 64.4491 58.8516 63.7695C58.8516 56.174 53.9944 49.0152 47.3019 46.7476ZM46.7422 28.209C46.7422 28.8875 46.199 29.4395 45.5312 29.4395H43.6831C43.9909 27.0167 44.1961 24.4385 44.2785 21.8991C44.281 21.8275 44.2829 21.7579 44.2851 21.6875H46.7422V28.209ZM16.4688 29.4395C15.801 29.4395 15.2578 28.8875 15.2578 28.209V21.6875H17.7158C17.7198 21.8158 17.724 21.9448 17.7287 22.0746C17.7289 22.079 17.7291 22.0833 17.7292 22.0878C17.7292 22.0881 17.7292 22.0885 17.7292 22.0889C17.814 24.5587 18.0164 27.0699 18.3172 29.4393H16.4688V29.4395ZM18.8906 34.3613C18.2229 34.3613 17.6797 33.8093 17.6797 33.1309V31.9004H18.6724L18.9301 33.4703C18.9793 33.7687 19.0397 34.066 19.1096 34.3613H18.8906ZM17.6817 19.2266H15.3038C15.9172 10.9798 22.6902 4.46094 31 4.46094C39.2729 4.46094 46.0757 10.979 46.696 19.2266H44.3184C44.2312 12.4311 38.7852 6.92188 32.0839 6.92188H29.9163C23.2151 6.92188 17.7688 12.4311 17.6817 19.2266ZM29.9162 9.38281H32.0838C37.5099 9.38281 41.9016 13.8926 41.8984 19.4001C41.8984 19.7873 41.8954 20.1244 41.889 20.4312C41.889 20.4351 41.8889 20.4392 41.8889 20.4433L40.3742 20.2234C36.2595 19.6263 32.3743 17.6524 29.4344 14.6651C29.2072 14.4344 28.8993 14.3047 28.5781 14.3047C25.326 14.3047 22.213 15.8103 20.1551 18.3539C20.6622 13.3436 24.8306 9.38281 29.9162 9.38281ZM21.6201 34.3613C21.0139 32.3122 20.3203 26.2829 20.167 22.4193L21.7968 20.2111C23.2936 18.1837 25.6223 16.9241 28.0996 16.7795C31.359 19.9315 35.5758 22.013 40.0318 22.6594L41.8145 22.9183C41.6954 25.4882 41.4518 28.067 41.103 30.4387C41.1029 30.4395 41.1027 30.4403 41.1026 30.4412C40.9917 31.2037 40.9043 31.6944 40.681 33.065C40.0397 36.9736 37.1695 40.5081 33.3806 41.4707C31.8213 41.8663 30.1785 41.8662 28.62 41.4707C26.2542 40.8698 24.0849 39.2064 22.685 36.8223H25.1536C25.6535 38.2544 26.9994 39.2832 28.5781 39.2832H31C33.0071 39.2832 34.6328 37.6314 34.6328 35.5918C34.6328 33.5564 33.0031 31.9004 31 31.9004H28.5781C26.9643 31.9004 25.6382 32.9596 25.1515 34.3613H21.6201ZM28.4763 43.961C29.3069 44.1388 30.1537 44.2297 31 44.2297C31.6625 44.2297 32.3251 44.1733 32.9802 44.0641L30.8405 46.3634L28.4763 43.961ZM29.1757 48.1523L25.3349 52.2795C24.2775 50.2229 23.3689 48.0825 22.6237 45.8913L24.0661 42.9601L29.1757 48.1523ZM37.7287 42.5432L39.3761 45.8912C38.6296 48.0861 37.7208 50.2272 36.6645 52.2814L32.5536 48.1042L37.7287 42.5432ZM27.3672 35.5918C27.3672 34.9125 27.9094 34.3613 28.5781 34.3613H31C31.6677 34.3613 32.2109 34.9133 32.2109 35.5918C32.2109 36.2713 31.6686 36.8223 31 36.8223H28.5781C27.9104 36.8223 27.3672 36.2703 27.3672 35.5918ZM5.61875 62.5391C6.09864 56.4434 10.091 50.9029 15.4639 49.0823L20.5612 47.3562C21.4951 49.9802 22.652 52.5306 24.0079 54.9531C24.0102 54.9573 24.0124 54.9615 24.0147 54.9655C24.0147 54.9657 24.0148 54.9656 24.0148 54.9658C25.0055 56.7363 26.1205 58.4665 27.3294 60.109L28.8191 62.5391H5.61875ZM31 61.4422L29.3577 58.7631C29.3393 58.7331 29.3197 58.7039 29.2989 58.6756C28.3183 57.3465 27.4035 55.9564 26.5704 54.5336L30.889 49.893L35.4394 54.5169C34.6007 55.95 33.6828 57.3459 32.7014 58.6754C32.642 58.7557 32.7262 58.6291 31 61.4422ZM33.1809 62.5391L34.6705 60.1091C35.8847 58.4603 37.0077 56.7162 38.0083 54.9249C38.0144 54.9141 38.02 54.903 38.0261 54.8922C38.0268 54.8908 38.0276 54.8896 38.0283 54.8883C39.367 52.4888 40.5118 49.9606 41.4388 47.3562L46.536 49.0823C51.909 50.9029 55.9014 56.4434 56.3813 62.5391H33.1809Z" fill="currentColor"/>
<path d="M52.7421 57.5594C51.9329 55.9135 50.7475 54.4512 49.3141 53.3307C48.7839 52.9162 48.0237 53.0169 47.616 53.5556C47.2081 54.0943 47.3073 54.8668 47.8374 55.2812C48.9822 56.1762 49.9289 57.3442 50.5754 58.6592C50.8749 59.2682 51.6026 59.5133 52.1999 59.2101C52.7981 58.9064 53.0409 58.1674 52.7421 57.5594Z" fill="currentColor"/>
</svg>
