<svg width="16" height="16" viewBox="0 0 16 16" fill="none" xmlns="http://www.w3.org/2000/svg">
<path d="M7.61183 0.00925297C3.38625 0.210451 0.0516711 3.72954 0.06449 7.9599C0.068393 9.24836 0.37945 10.4645 0.928173 11.5391L0.0856889 15.6286C0.0401151 15.8498 0.23963 16.0435 0.459386 15.9914L4.46663 15.042C5.49615 15.5549 6.65252 15.8511 7.87636 15.8697C12.1953 15.9357 15.7966 12.5064 15.9312 8.18903C16.0755 3.56113 12.2559 -0.211919 7.61183 0.00925297ZM12.3933 12.3289C11.2198 13.5024 9.65944 14.1487 7.9998 14.1487C7.02802 14.1487 6.09764 13.9307 5.23442 13.5007L4.67636 13.2227L2.21951 13.8048L2.73666 11.2944L2.46173 10.756C2.0136 9.87835 1.78638 8.92934 1.78638 7.93533C1.78638 6.27566 2.43268 4.71536 3.60624 3.54177C4.76931 2.3787 6.35509 1.72188 7.99992 1.72188C9.65955 1.72192 11.2198 2.36822 12.3934 3.54173C13.5669 4.71528 14.2132 6.27558 14.2133 7.93521C14.2132 9.58008 13.5564 11.1659 12.3933 12.3289Z" fill="#930505"/>
<path d="M11.8509 9.65622L10.3138 9.21487C10.1117 9.15686 9.8941 9.21418 9.74686 9.36422L9.37098 9.74718C9.21248 9.90866 8.97199 9.96055 8.76222 9.87568C8.0351 9.58142 6.50556 8.22147 6.11495 7.54123C6.00226 7.345 6.0209 7.09968 6.15926 6.92064L6.48743 6.49609C6.616 6.32975 6.64313 6.10636 6.5581 5.91407L5.91142 4.45146C5.75652 4.10114 5.30886 3.99916 5.0164 4.24651C4.58741 4.60934 4.0784 5.16071 4.01653 5.77153C3.90743 6.84847 4.36929 8.20605 6.11583 9.83615C8.13356 11.7194 9.74935 11.9682 10.8014 11.7133C11.3981 11.5688 11.8749 10.9894 12.1759 10.515C12.3811 10.1915 12.2191 9.76195 11.8509 9.65622Z" fill="#930505"/>
</svg>
